<?xml version="1.0" encoding="UTF-8"?><svg id="uuid-c470d5cf-f01f-496f-b057-c359a77994af" xmlns="http://www.w3.org/2000/svg" width="396.71581" height="175" viewBox="0 0 396.71581 175"><defs><style>.uuid-be8d3c5f-0c83-4775-96ff-3732738fa9f8{fill:none;}.uuid-bbc32ded-c847-4d71-9b7f-2f2e435127db{fill:#c7c7c7;}.uuid-dd0fd05c-9d07-417d-ba3c-e3c6ff5ac631{fill:#f2f2f2;}.uuid-8e4567cc-9c0f-42e5-aeab-0433b3730728{fill:#e0e0e0;}.uuid-8ce9418d-b217-4412-87c5-d5d0f5cc2735{fill:#e00;}</style></defs><g id="uuid-faba669b-5776-4959-91ec-ae807247a8d5"><path d="M210.07287,57.67438c.11727.54102.16729,1.09446.14892,1.64774,0,7.14821-8.69027,8.40203-14.69996,8.40684-23.37582,0-40.83322-14.48859-40.83322-18.91779-.01775-.32389.01795-.64849.10569-.96078l-1.75823,4.35714c-.47804,1.11226-.72327,2.31063-.72059,3.52126,0,8.69988,19.69602,21.83857,42.17831,21.81935,9.94409,0,17.50543-3.74705,17.49583-10.48213,0-.51402,0-.93196-.83108-4.86636l-1.08567-4.52528Z"/><path class="uuid-8ce9418d-b217-4412-87c5-d5d0f5cc2735" d="M195.52183,67.72415c6.00969,0,14.70957-1.25863,14.69995-8.40684.01797-.55168-.03205-1.10348-.14892-1.64294l-3.59332-15.54545c-.83107-3.42038-1.56127-4.97204-7.57096-7.96968-4.6646-2.37793-14.82006-6.30753-17.8225-6.30273-2.79588,0-3.62214,3.62695-6.93684,3.63175-3.20901,0-5.59655-2.69019-8.59899-2.68538-2.88234,0-4.76548,1.97441-6.21145,6.01449,0,0-4.03048,11.39487-4.5445,13.05222-.08773.31229-.12344.63689-.10569.96078,0,4.4292,17.4574,18.93701,40.83322,18.91779M211.15855,62.20446c.83108,3.9344.83108,4.35234.83108,4.86636,0,6.72547-7.55174,10.47252-17.49583,10.48213-22.47748,0-42.1687-13.11947-42.17831-21.81935-.00268-1.21064.24255-2.409.72059-3.52127-8.08017.41794-18.53828,1.87833-18.53348,11.09703,0,15.1227,35.87559,33.73785,64.25707,33.71383,21.75209,0,27.23336-9.86723,27.22855-17.63515,0-6.11538-5.2843-13.04741-14.82966-17.18358"/><path d="M257.37695,138.83641c0,5.70705,3.43479,8.4837,9.69909,8.4837,1.92873-.04754,3.84546-.31836,5.71185-.80705v-6.61979c-1.19244.38035-2.43781.56846-3.6894.55726-2.5797,0-3.53567-.80705-3.53567-3.23303v-10.16027h7.47488v-6.82155h-7.47489v-8.64703l-8.16664,1.76783v6.86959h-5.42362v6.83116h5.4044v11.77918ZM231.94506,138.98533c0-1.76783,1.76783-2.62774,4.44361-2.62774,1.63554.00951,3.2642.21269,4.85195.60529v3.4396c-1.56557.85238-3.32415,1.28749-5.10656,1.26343-2.62293,0-4.18901-1.01362-4.18901-2.68058M234.43829,147.42099c2.88234,0,5.20743-.60529,7.3788-2.07048v1.61891h8.08499v-17.12593c0-6.5189-4.39557-10.08821-11.72153-10.08821-4.09292,0-8.13782.96078-12.49016,2.93039l2.93039,6.01449c3.13214-1.31627,5.76469-2.12333,8.08497-2.12333,3.36274,0,5.10175,1.31146,5.10175,3.99205v1.29225c-1.97998-.51114-4.01766-.76463-6.06253-.75422-6.86958,0-11.01536,2.88234-11.01536,8.03213,0,4.69822,3.73744,8.28194,9.69909,8.28194M190.02136,146.96942h8.69027v-13.84486h14.55104v13.84487h8.69027v-35.36638h-8.68067v13.59025h-14.55103v-13.59025h-8.69028l-.0096,35.36637ZM156.90802,133.58093c0-3.84313,3.03126-6.7687,7.02331-6.7687,2.07956-.04586,4.10006.69339,5.659,2.07048v9.3436c-1.52787,1.43383-3.56504,2.1982-5.659,2.12333-3.9392,0-7.02331-2.93039-7.02331-6.7687M169.69122,146.96942h8.08498v-37.13421l-8.16664,1.76783v10.05458c-2.07869-1.17923-4.43176-1.78904-6.82155-1.76783-7.77753,0-13.8929,6.00969-13.8929,13.69114-.0903,7.49719,5.91417,13.64807,13.41135,13.73837.07725.00093.1545.0012.23174.00081,2.57717.01229,5.09059-.80082,7.17223-2.32029l-.01921,1.96961ZM132.60986,126.45673c2.57489,0,4.74626,1.66696,5.60616,4.24185h-11.15468c.80706-2.67578,2.8295-4.24185,5.55812-4.24185M118.82744,133.62896c0,7.78233,6.36518,13.84487,14.55104,13.84487,4.49646,0,7.77753-1.21059,11.16428-4.04009l-5.4092-4.80391c-1.25863,1.31146-3.13215,2.01764-5.35155,2.01764-2.85682.08046-5.46862-1.60538-6.57175-4.24185h19.0475v-2.02245c0-8.4885-5.70704-14.59908-13.48937-14.59908-7.57911-.11436-13.81591,5.93702-13.93027,13.51614-.00163.10797-.00198.21595-.00106.32392M104.73277,119.02989c2.88234,0,4.49646,1.82068,4.49646,3.99205s-1.61892,3.99205-4.49646,3.99205h-8.58939v-7.98409h8.58939ZM87.4387,146.96942h8.70468v-12.88408h6.61498l6.67263,12.88408h9.69909l-7.78233-14.14751c4.04809-1.64406,6.68964-5.58453,6.67263-9.9537,0-6.36518-5.00567-11.26516-12.49016-11.26516h-18.07711l-.01441,35.36637Z"/></g><path class="uuid-dd0fd05c-9d07-417d-ba3c-e3c6ff5ac631" d="M60,.16516v174.99999h240.45972V.16516H60ZM273.03773,147.47383H87.43868V27.85653h185.59906v119.6173Z"/><path class="uuid-8e4567cc-9c0f-42e5-aeab-0433b3730728" d="M146.2578,162.0745c0-8.48846-5.70719-14.59907-13.48934-14.59907-7.57933-.11437-13.81607,5.93707-13.93037,13.51614-.00152.10798-.00202.21597-.00101.32395l-.00961.0048c0,7.78233,6.36521,13.84483,14.55096,13.84483,4.49661,0,7.77759-1.21058,11.16428-4.04009l-5.40929-4.80387c-1.25837,1.31142-3.13203,2.01761-5.35138,2.01761-2.85688.08048-5.46872-1.60534-6.57182-4.24183h19.04758v-2.02248ZM127.06128,158.38991c.80646-2.67405,2.8273-4.23943,5.55318-4.24145-.00152,0-.00303-.00038-.00455-.00038h.00961c-.00177,0-.00329.00038-.00506.00038,2.57289.00202,4.74217,1.66818,5.60148,4.24145h-11.15467Z"/><path class="uuid-8e4567cc-9c0f-42e5-aeab-0433b3730728" d="M87.4387,134.38317c0-8.48846-5.70719-14.59907-13.48934-14.59907-7.57933-.11437-13.81607,5.93707-13.93037,13.51614-.00152.10798-.00202.21597-.00101.32395l-.00961.0048c0,7.78233,6.36521,13.84483,14.55096,13.84483,4.49661,0,7.77759-1.21058,11.16428-4.04009l-5.40929-4.80387c-1.25837,1.31142-3.13203,2.01761-5.35138,2.01761-2.85688.08048-5.46872-1.60534-6.57182-4.24183h19.04758v-2.02248ZM68.24218,130.69859c.80646-2.67405,2.8273-4.23943,5.55318-4.24145-.00152,0-.00303-.00038-.00455-.00038h.00961c-.00177,0-.00329.00038-.00506.00038,2.57289.00202,4.74217,1.66818,5.60148,4.24145h-11.15467Z"/><path class="uuid-8e4567cc-9c0f-42e5-aeab-0433b3730728" d="M146.2578,14.76586c0-8.48846-5.70719-14.59907-13.48934-14.59907-7.57933-.11437-13.81607,5.93707-13.93037,13.51614-.00152.10798-.00202.21597-.00101.32395l-.00961.0048c0,7.78233,6.36521,13.84483,14.55096,13.84483,4.49661,0,7.77759-1.21058,11.16428-4.04009l-5.40929-4.80387c-1.25837,1.31142-3.13203,2.01761-5.35138,2.01761-2.85688.08048-5.46872-1.60534-6.57182-4.24183h19.04758v-2.02248ZM127.06128,11.08127c.80646-2.67405,2.8273-4.23943,5.55318-4.24145-.00152,0-.00303-.00038-.00455-.00038h.00961c-.00177,0-.00329.00038-.00506.00038,2.57289.00202,4.74217,1.66818,5.60148,4.24145h-11.15467Z"/><path class="uuid-bbc32ded-c847-4d71-9b7f-2f2e435127db" d="M119.1299,1.41525c-.1377,0-.25-.11182-.25-.25V.16525c0-.13818.1123-.25.25-.25s.25.11182.25.25v1c0,.13818-.1123.25-.25.25Z"/><path class="uuid-bbc32ded-c847-4d71-9b7f-2f2e435127db" d="M119.1299,171.41525c-.1377,0-.25-.11182-.25-.25v-2c0-.13818.1123-.25.25-.25s.25.11182.25.25v2c0,.13818-.1123.25-.25.25ZM119.1299,166.41525c-.1377,0-.25-.11182-.25-.25v-2c0-.13818.1123-.25.25-.25s.25.11182.25.25v2c0,.13818-.1123.25-.25.25ZM119.1299,161.41525c-.1377,0-.25-.11182-.25-.25v-2c0-.13818.1123-.25.25-.25s.25.11182.25.25v2c0,.13818-.1123.25-.25.25ZM119.1299,156.41525c-.1377,0-.25-.11182-.25-.25v-2c0-.13818.1123-.25.25-.25s.25.11182.25.25v2c0,.13818-.1123.25-.25.25ZM119.1299,151.41525c-.1377,0-.25-.11182-.25-.25v-2c0-.13818.1123-.25.25-.25s.25.11182.25.25v2c0,.13818-.1123.25-.25.25ZM119.1299,146.41525c-.1377,0-.25-.11182-.25-.25v-2c0-.13818.1123-.25.25-.25s.25.11182.25.25v2c0,.13818-.1123.25-.25.25ZM119.1299,141.41525c-.1377,0-.25-.11182-.25-.25v-2c0-.13818.1123-.25.25-.25s.25.11182.25.25v2c0,.13818-.1123.25-.25.25ZM119.1299,136.41525c-.1377,0-.25-.11182-.25-.25v-2c0-.13818.1123-.25.25-.25s.25.11182.25.25v2c0,.13818-.1123.25-.25.25ZM119.1299,131.41525c-.1377,0-.25-.11182-.25-.25v-2c0-.13818.1123-.25.25-.25s.25.11182.25.25v2c0,.13818-.1123.25-.25.25ZM119.1299,126.41525c-.1377,0-.25-.11182-.25-.25v-2c0-.13818.1123-.25.25-.25s.25.11182.25.25v2c0,.13818-.1123.25-.25.25ZM119.1299,121.41525c-.1377,0-.25-.11182-.25-.25v-2c0-.13818.1123-.25.25-.25s.25.11182.25.25v2c0,.13818-.1123.25-.25.25ZM119.1299,116.41525c-.1377,0-.25-.11182-.25-.25v-2c0-.13818.1123-.25.25-.25s.25.11182.25.25v2c0,.13818-.1123.25-.25.25ZM119.1299,111.41525c-.1377,0-.25-.11182-.25-.25v-2c0-.13818.1123-.25.25-.25s.25.11182.25.25v2c0,.13818-.1123.25-.25.25ZM119.1299,106.41525c-.1377,0-.25-.11182-.25-.25v-2c0-.13818.1123-.25.25-.25s.25.11182.25.25v2c0,.13818-.1123.25-.25.25ZM119.1299,101.41525c-.1377,0-.25-.11182-.25-.25v-2c0-.13818.1123-.25.25-.25s.25.11182.25.25v2c0,.13818-.1123.25-.25.25ZM119.1299,96.41525c-.1377,0-.25-.11182-.25-.25v-2c0-.13818.1123-.25.25-.25s.25.11182.25.25v2c0,.13818-.1123.25-.25.25ZM119.1299,91.41525c-.1377,0-.25-.11182-.25-.25v-2c0-.13818.1123-.25.25-.25s.25.11182.25.25v2c0,.13818-.1123.25-.25.25ZM119.1299,86.41525c-.1377,0-.25-.11182-.25-.25v-2c0-.13818.1123-.25.25-.25s.25.11182.25.25v2c0,.13818-.1123.25-.25.25ZM119.1299,81.41525c-.1377,0-.25-.11182-.25-.25v-2c0-.13818.1123-.25.25-.25s.25.11182.25.25v2c0,.13818-.1123.25-.25.25ZM119.1299,76.41525c-.1377,0-.25-.11182-.25-.25v-2c0-.13818.1123-.25.25-.25s.25.11182.25.25v2c0,.13818-.1123.25-.25.25ZM119.1299,71.41525c-.1377,0-.25-.11182-.25-.25v-2c0-.13818.1123-.25.25-.25s.25.11182.25.25v2c0,.13818-.1123.25-.25.25ZM119.1299,66.41525c-.1377,0-.25-.11182-.25-.25v-2c0-.13818.1123-.25.25-.25s.25.11182.25.25v2c0,.13818-.1123.25-.25.25ZM119.1299,61.41525c-.1377,0-.25-.11182-.25-.25v-2c0-.13818.1123-.25.25-.25s.25.11182.25.25v2c0,.13818-.1123.25-.25.25ZM119.1299,56.41525c-.1377,0-.25-.11182-.25-.25v-2c0-.13818.1123-.25.25-.25s.25.11182.25.25v2c0,.13818-.1123.25-.25.25ZM119.1299,51.41525c-.1377,0-.25-.11182-.25-.25v-2c0-.13818.1123-.25.25-.25s.25.11182.25.25v2c0,.13818-.1123.25-.25.25ZM119.1299,46.41525c-.1377,0-.25-.11182-.25-.25v-2c0-.13818.1123-.25.25-.25s.25.11182.25.25v2c0,.13818-.1123.25-.25.25ZM119.1299,41.41525c-.1377,0-.25-.11182-.25-.25v-2c0-.13818.1123-.25.25-.25s.25.11182.25.25v2c0,.13818-.1123.25-.25.25ZM119.1299,36.41525c-.1377,0-.25-.11182-.25-.25v-2c0-.13818.1123-.25.25-.25s.25.11182.25.25v2c0,.13818-.1123.25-.25.25ZM119.1299,31.41525c-.1377,0-.25-.11182-.25-.25v-2c0-.13818.1123-.25.25-.25s.25.11182.25.25v2c0,.13818-.1123.25-.25.25ZM119.1299,26.41525c-.1377,0-.25-.11182-.25-.25v-2c0-.13818.1123-.25.25-.25s.25.11182.25.25v2c0,.13818-.1123.25-.25.25ZM119.1299,21.41525c-.1377,0-.25-.11182-.25-.25v-2c0-.13818.1123-.25.25-.25s.25.11182.25.25v2c0,.13818-.1123.25-.25.25ZM119.1299,16.41525c-.1377,0-.25-.11182-.25-.25v-2c0-.13818.1123-.25.25-.25s.25.11182.25.25v2c0,.13818-.1123.25-.25.25ZM119.1299,11.41525c-.1377,0-.25-.11182-.25-.25v-2c0-.13818.1123-.25.25-.25s.25.11182.25.25v2c0,.13818-.1123.25-.25.25ZM119.1299,6.41525c-.1377,0-.25-.11182-.25-.25v-2c0-.13818.1123-.25.25-.25s.25.11182.25.25v2c0,.13818-.1123.25-.25.25Z"/><path class="uuid-bbc32ded-c847-4d71-9b7f-2f2e435127db" d="M119.1299,175.41525c-.1377,0-.25-.11182-.25-.25v-1c0-.13818.1123-.25.25-.25s.25.11182.25.25v1c0,.13818-.1123.25-.25.25Z"/><path class="uuid-bbc32ded-c847-4d71-9b7f-2f2e435127db" d="M146.25783,1.41525c-.1377,0-.25-.11182-.25-.25V.16525c0-.13818.1123-.25.25-.25s.25.11182.25.25v1c0,.13818-.1123.25-.25.25Z"/><path class="uuid-bbc32ded-c847-4d71-9b7f-2f2e435127db" d="M146.25783,171.41525c-.1377,0-.25-.11182-.25-.25v-2c0-.13818.1123-.25.25-.25s.25.11182.25.25v2c0,.13818-.1123.25-.25.25ZM146.25783,166.41525c-.1377,0-.25-.11182-.25-.25v-2c0-.13818.1123-.25.25-.25s.25.11182.25.25v2c0,.13818-.1123.25-.25.25ZM146.25783,161.41525c-.1377,0-.25-.11182-.25-.25v-2c0-.13818.1123-.25.25-.25s.25.11182.25.25v2c0,.13818-.1123.25-.25.25ZM146.25783,156.41525c-.1377,0-.25-.11182-.25-.25v-2c0-.13818.1123-.25.25-.25s.25.11182.25.25v2c0,.13818-.1123.25-.25.25ZM146.25783,151.41525c-.1377,0-.25-.11182-.25-.25v-2c0-.13818.1123-.25.25-.25s.25.11182.25.25v2c0,.13818-.1123.25-.25.25ZM146.25783,146.41525c-.1377,0-.25-.11182-.25-.25v-2c0-.13818.1123-.25.25-.25s.25.11182.25.25v2c0,.13818-.1123.25-.25.25ZM146.25783,141.41525c-.1377,0-.25-.11182-.25-.25v-2c0-.13818.1123-.25.25-.25s.25.11182.25.25v2c0,.13818-.1123.25-.25.25ZM146.25783,136.41525c-.1377,0-.25-.11182-.25-.25v-2c0-.13818.1123-.25.25-.25s.25.11182.25.25v2c0,.13818-.1123.25-.25.25ZM146.25783,131.41525c-.1377,0-.25-.11182-.25-.25v-2c0-.13818.1123-.25.25-.25s.25.11182.25.25v2c0,.13818-.1123.25-.25.25ZM146.25783,126.41525c-.1377,0-.25-.11182-.25-.25v-2c0-.13818.1123-.25.25-.25s.25.11182.25.25v2c0,.13818-.1123.25-.25.25ZM146.25783,121.41525c-.1377,0-.25-.11182-.25-.25v-2c0-.13818.1123-.25.25-.25s.25.11182.25.25v2c0,.13818-.1123.25-.25.25ZM146.25783,116.41525c-.1377,0-.25-.11182-.25-.25v-2c0-.13818.1123-.25.25-.25s.25.11182.25.25v2c0,.13818-.1123.25-.25.25ZM146.25783,111.41525c-.1377,0-.25-.11182-.25-.25v-2c0-.13818.1123-.25.25-.25s.25.11182.25.25v2c0,.13818-.1123.25-.25.25ZM146.25783,106.41525c-.1377,0-.25-.11182-.25-.25v-2c0-.13818.1123-.25.25-.25s.25.11182.25.25v2c0,.13818-.1123.25-.25.25ZM146.25783,101.41525c-.1377,0-.25-.11182-.25-.25v-2c0-.13818.1123-.25.25-.25s.25.11182.25.25v2c0,.13818-.1123.25-.25.25ZM146.25783,96.41525c-.1377,0-.25-.11182-.25-.25v-2c0-.13818.1123-.25.25-.25s.25.11182.25.25v2c0,.13818-.1123.25-.25.25ZM146.25783,91.41525c-.1377,0-.25-.11182-.25-.25v-2c0-.13818.1123-.25.25-.25s.25.11182.25.25v2c0,.13818-.1123.25-.25.25ZM146.25783,86.41525c-.1377,0-.25-.11182-.25-.25v-2c0-.13818.1123-.25.25-.25s.25.11182.25.25v2c0,.13818-.1123.25-.25.25ZM146.25783,81.41525c-.1377,0-.25-.11182-.25-.25v-2c0-.13818.1123-.25.25-.25s.25.11182.25.25v2c0,.13818-.1123.25-.25.25ZM146.25783,76.41525c-.1377,0-.25-.11182-.25-.25v-2c0-.13818.1123-.25.25-.25s.25.11182.25.25v2c0,.13818-.1123.25-.25.25ZM146.25783,71.41525c-.1377,0-.25-.11182-.25-.25v-2c0-.13818.1123-.25.25-.25s.25.11182.25.25v2c0,.13818-.1123.25-.25.25ZM146.25783,66.41525c-.1377,0-.25-.11182-.25-.25v-2c0-.13818.1123-.25.25-.25s.25.11182.25.25v2c0,.13818-.1123.25-.25.25ZM146.25783,61.41525c-.1377,0-.25-.11182-.25-.25v-2c0-.13818.1123-.25.25-.25s.25.11182.25.25v2c0,.13818-.1123.25-.25.25ZM146.25783,56.41525c-.1377,0-.25-.11182-.25-.25v-2c0-.13818.1123-.25.25-.25s.25.11182.25.25v2c0,.13818-.1123.25-.25.25ZM146.25783,51.41525c-.1377,0-.25-.11182-.25-.25v-2c0-.13818.1123-.25.25-.25s.25.11182.25.25v2c0,.13818-.1123.25-.25.25ZM146.25783,46.41525c-.1377,0-.25-.11182-.25-.25v-2c0-.13818.1123-.25.25-.25s.25.11182.25.25v2c0,.13818-.1123.25-.25.25ZM146.25783,41.41525c-.1377,0-.25-.11182-.25-.25v-2c0-.13818.1123-.25.25-.25s.25.11182.25.25v2c0,.13818-.1123.25-.25.25ZM146.25783,36.41525c-.1377,0-.25-.11182-.25-.25v-2c0-.13818.1123-.25.25-.25s.25.11182.25.25v2c0,.13818-.1123.25-.25.25ZM146.25783,31.41525c-.1377,0-.25-.11182-.25-.25v-2c0-.13818.1123-.25.25-.25s.25.11182.25.25v2c0,.13818-.1123.25-.25.25ZM146.25783,26.41525c-.1377,0-.25-.11182-.25-.25v-2c0-.13818.1123-.25.25-.25s.25.11182.25.25v2c0,.13818-.1123.25-.25.25ZM146.25783,21.41525c-.1377,0-.25-.11182-.25-.25v-2c0-.13818.1123-.25.25-.25s.25.11182.25.25v2c0,.13818-.1123.25-.25.25ZM146.25783,16.41525c-.1377,0-.25-.11182-.25-.25v-2c0-.13818.1123-.25.25-.25s.25.11182.25.25v2c0,.13818-.1123.25-.25.25ZM146.25783,11.41525c-.1377,0-.25-.11182-.25-.25v-2c0-.13818.1123-.25.25-.25s.25.11182.25.25v2c0,.13818-.1123.25-.25.25ZM146.25783,6.41525c-.1377,0-.25-.11182-.25-.25v-2c0-.13818.1123-.25.25-.25s.25.11182.25.25v2c0,.13818-.1123.25-.25.25Z"/><path class="uuid-bbc32ded-c847-4d71-9b7f-2f2e435127db" d="M146.25783,175.41525c-.1377,0-.25-.11182-.25-.25v-1c0-.13818.1123-.25.25-.25s.25.11182.25.25v1c0,.13818-.1123.25-.25.25Z"/><path class="uuid-bbc32ded-c847-4d71-9b7f-2f2e435127db" d="M61.00881,120.03244h-1c-.1377,0-.25-.11182-.25-.25s.1123-.25.25-.25h1c.1377,0,.25.11182.25.25s-.1123.25-.25.25Z"/><path class="uuid-bbc32ded-c847-4d71-9b7f-2f2e435127db" d="M296.4551,120.03244h-2.00391c-.1377,0-.25-.11182-.25-.25s.1123-.25.25-.25h2.00391c.1377,0,.25.11182.25.25s-.1123.25-.25.25ZM291.44533,120.03244h-2.00391c-.1377,0-.25-.11182-.25-.25s.1123-.25.25-.25h2.00391c.1377,0,.25.11182.25.25s-.1123.25-.25.25ZM286.43557,120.03244h-2.00391c-.1377,0-.25-.11182-.25-.25s.1123-.25.25-.25h2.00391c.1377,0,.25.11182.25.25s-.1123.25-.25.25ZM281.42678,120.03244h-2.00391c-.1377,0-.25-.11182-.25-.25s.1123-.25.25-.25h2.00391c.1377,0,.25.11182.25.25s-.1123.25-.25.25ZM276.41701,120.03244h-2.00391c-.1377,0-.25-.11182-.25-.25s.1123-.25.25-.25h2.00391c.1377,0,.25.11182.25.25s-.1123.25-.25.25ZM271.40725,120.03244h-2.00391c-.1377,0-.25-.11182-.25-.25s.1123-.25.25-.25h2.00391c.1377,0,.25.11182.25.25s-.1123.25-.25.25ZM266.39748,120.03244h-2.00293c-.1377,0-.25-.11182-.25-.25s.1123-.25.25-.25h2.00293c.1377,0,.25.11182.25.25s-.1123.25-.25.25ZM261.38869,120.03244h-2.00391c-.1377,0-.25-.11182-.25-.25s.1123-.25.25-.25h2.00391c.1377,0,.25.11182.25.25s-.1123.25-.25.25ZM256.37893,120.03244h-2.00391c-.1377,0-.25-.11182-.25-.25s.1123-.25.25-.25h2.00391c.1377,0,.25.11182.25.25s-.1123.25-.25.25ZM251.36916,120.03244h-2.00391c-.1377,0-.25-.11182-.25-.25s.1123-.25.25-.25h2.00391c.1377,0,.25.11182.25.25s-.1123.25-.25.25ZM246.36037,120.03244h-2.00391c-.1377,0-.25-.11182-.25-.25s.1123-.25.25-.25h2.00391c.1377,0,.25.11182.25.25s-.1123.25-.25.25ZM241.35061,120.03244h-2.00391c-.1377,0-.25-.11182-.25-.25s.1123-.25.25-.25h2.00391c.1377,0,.25.11182.25.25s-.1123.25-.25.25ZM236.34084,120.03244h-2.00391c-.1377,0-.25-.11182-.25-.25s.1123-.25.25-.25h2.00391c.1377,0,.25.11182.25.25s-.1123.25-.25.25ZM231.33108,120.03244h-2.00391c-.1377,0-.25-.11182-.25-.25s.1123-.25.25-.25h2.00391c.1377,0,.25.11182.25.25s-.1123.25-.25.25ZM226.32229,120.03244h-2.00391c-.1377,0-.25-.11182-.25-.25s.1123-.25.25-.25h2.00391c.1377,0,.25.11182.25.25s-.1123.25-.25.25ZM221.31252,120.03244h-2.00391c-.1377,0-.25-.11182-.25-.25s.1123-.25.25-.25h2.00391c.1377,0,.25.11182.25.25s-.1123.25-.25.25ZM216.30276,120.03244h-2.00391c-.1377,0-.25-.11182-.25-.25s.1123-.25.25-.25h2.00391c.1377,0,.25.11182.25.25s-.1123.25-.25.25ZM211.29397,120.03244h-2.00391c-.1377,0-.25-.11182-.25-.25s.1123-.25.25-.25h2.00391c.1377,0,.25.11182.25.25s-.1123.25-.25.25ZM206.2842,120.03244h-2.00391c-.1377,0-.25-.11182-.25-.25s.1123-.25.25-.25h2.00391c.1377,0,.25.11182.25.25s-.1123.25-.25.25ZM201.27444,120.03244h-2.00391c-.1377,0-.25-.11182-.25-.25s.1123-.25.25-.25h2.00391c.1377,0,.25.11182.25.25s-.1123.25-.25.25ZM196.26467,120.03244h-2.00391c-.1377,0-.25-.11182-.25-.25s.1123-.25.25-.25h2.00391c.1377,0,.25.11182.25.25s-.1123.25-.25.25ZM191.25588,120.03244h-2.00391c-.1377,0-.25-.11182-.25-.25s.1123-.25.25-.25h2.00391c.1377,0,.25.11182.25.25s-.1123.25-.25.25ZM186.24612,120.03244h-2.00391c-.1377,0-.25-.11182-.25-.25s.1123-.25.25-.25h2.00391c.1377,0,.25.11182.25.25s-.1123.25-.25.25ZM181.23635,120.03244h-2.00391c-.1377,0-.25-.11182-.25-.25s.1123-.25.25-.25h2.00391c.1377,0,.25.11182.25.25s-.1123.25-.25.25ZM176.22658,120.03244h-2.00293c-.1377,0-.25-.11182-.25-.25s.1123-.25.25-.25h2.00293c.1377,0,.25.11182.25.25s-.1123.25-.25.25ZM171.2178,120.03244h-2.00391c-.1377,0-.25-.11182-.25-.25s.1123-.25.25-.25h2.00391c.1377,0,.25.11182.25.25s-.1123.25-.25.25ZM166.20803,120.03244h-2.00391c-.1377,0-.25-.11182-.25-.25s.1123-.25.25-.25h2.00391c.1377,0,.25.11182.25.25s-.1123.25-.25.25ZM161.19826,120.03244h-2.00391c-.1377,0-.25-.11182-.25-.25s.1123-.25.25-.25h2.00391c.1377,0,.25.11182.25.25s-.1123.25-.25.25ZM156.18948,120.03244h-2.00391c-.1377,0-.25-.11182-.25-.25s.1123-.25.25-.25h2.00391c.1377,0,.25.11182.25.25s-.1123.25-.25.25ZM151.17971,120.03244h-2.00391c-.1377,0-.25-.11182-.25-.25s.1123-.25.25-.25h2.00391c.1377,0,.25.11182.25.25s-.1123.25-.25.25ZM146.16994,120.03244h-2.00391c-.1377,0-.25-.11182-.25-.25s.1123-.25.25-.25h2.00391c.1377,0,.25.11182.25.25s-.1123.25-.25.25ZM141.16115,120.03244h-2.00391c-.1377,0-.25-.11182-.25-.25s.1123-.25.25-.25h2.00391c.1377,0,.25.11182.25.25s-.1123.25-.25.25ZM136.15139,120.03244h-2.00391c-.1377,0-.25-.11182-.25-.25s.1123-.25.25-.25h2.00391c.1377,0,.25.11182.25.25s-.1123.25-.25.25ZM131.14162,120.03244h-2.00391c-.1377,0-.25-.11182-.25-.25s.1123-.25.25-.25h2.00391c.1377,0,.25.11182.25.25s-.1123.25-.25.25ZM126.13186,120.03244h-2.00293c-.1377,0-.25-.11182-.25-.25s.1123-.25.25-.25h2.00293c.1377,0,.25.11182.25.25s-.1123.25-.25.25ZM121.12307,120.03244h-2.00391c-.1377,0-.25-.11182-.25-.25s.1123-.25.25-.25h2.00391c.1377,0,.25.11182.25.25s-.1123.25-.25.25ZM116.1133,120.03244h-2.00391c-.1377,0-.25-.11182-.25-.25s.1123-.25.25-.25h2.00391c.1377,0,.25.11182.25.25s-.1123.25-.25.25ZM111.10354,120.03244h-2.00391c-.1377,0-.25-.11182-.25-.25s.1123-.25.25-.25h2.00391c.1377,0,.25.11182.25.25s-.1123.25-.25.25ZM106.09475,120.03244h-2.00391c-.1377,0-.25-.11182-.25-.25s.1123-.25.25-.25h2.00391c.1377,0,.25.11182.25.25s-.1123.25-.25.25ZM101.08498,120.03244h-2.00391c-.1377,0-.25-.11182-.25-.25s.1123-.25.25-.25h2.00391c.1377,0,.25.11182.25.25s-.1123.25-.25.25ZM96.07522,120.03244h-2.00391c-.1377,0-.25-.11182-.25-.25s.1123-.25.25-.25h2.00391c.1377,0,.25.11182.25.25s-.1123.25-.25.25ZM91.06545,120.03244h-2.00293c-.1377,0-.25-.11182-.25-.25s.1123-.25.25-.25h2.00293c.1377,0,.25.11182.25.25s-.1123.25-.25.25ZM86.05666,120.03244h-2.00391c-.1377,0-.25-.11182-.25-.25s.1123-.25.25-.25h2.00391c.1377,0,.25.11182.25.25s-.1123.25-.25.25ZM81.0469,120.03244h-2.00391c-.1377,0-.25-.11182-.25-.25s.1123-.25.25-.25h2.00391c.1377,0,.25.11182.25.25s-.1123.25-.25.25ZM76.03713,120.03244h-2.00391c-.1377,0-.25-.11182-.25-.25s.1123-.25.25-.25h2.00391c.1377,0,.25.11182.25.25s-.1123.25-.25.25ZM71.02834,120.03244h-2.00391c-.1377,0-.25-.11182-.25-.25s.1123-.25.25-.25h2.00391c.1377,0,.25.11182.25.25s-.1123.25-.25.25ZM66.01858,120.03244h-2.00391c-.1377,0-.25-.11182-.25-.25s.1123-.25.25-.25h2.00391c.1377,0,.25.11182.25.25s-.1123.25-.25.25Z"/><path class="uuid-bbc32ded-c847-4d71-9b7f-2f2e435127db" d="M300.45998,120.03244h-1c-.1377,0-.25-.11182-.25-.25s.1123-.25.25-.25h1c.1377,0,.25.11182.25.25s-.1123.25-.25.25Z"/><path class="uuid-bbc32ded-c847-4d71-9b7f-2f2e435127db" d="M61.00881,147.72385h-1c-.1377,0-.25-.11182-.25-.25s.1123-.25.25-.25h1c.1377,0,.25.11182.25.25s-.1123.25-.25.25Z"/><path class="uuid-bbc32ded-c847-4d71-9b7f-2f2e435127db" d="M296.4551,147.72385h-2.00391c-.1377,0-.25-.11182-.25-.25s.1123-.25.25-.25h2.00391c.1377,0,.25.11182.25.25s-.1123.25-.25.25ZM291.44533,147.72385h-2.00391c-.1377,0-.25-.11182-.25-.25s.1123-.25.25-.25h2.00391c.1377,0,.25.11182.25.25s-.1123.25-.25.25ZM286.43557,147.72385h-2.00391c-.1377,0-.25-.11182-.25-.25s.1123-.25.25-.25h2.00391c.1377,0,.25.11182.25.25s-.1123.25-.25.25ZM281.42678,147.72385h-2.00391c-.1377,0-.25-.11182-.25-.25s.1123-.25.25-.25h2.00391c.1377,0,.25.11182.25.25s-.1123.25-.25.25ZM276.41701,147.72385h-2.00391c-.1377,0-.25-.11182-.25-.25s.1123-.25.25-.25h2.00391c.1377,0,.25.11182.25.25s-.1123.25-.25.25ZM271.40725,147.72385h-2.00391c-.1377,0-.25-.11182-.25-.25s.1123-.25.25-.25h2.00391c.1377,0,.25.11182.25.25s-.1123.25-.25.25ZM266.39748,147.72385h-2.00293c-.1377,0-.25-.11182-.25-.25s.1123-.25.25-.25h2.00293c.1377,0,.25.11182.25.25s-.1123.25-.25.25ZM261.38869,147.72385h-2.00391c-.1377,0-.25-.11182-.25-.25s.1123-.25.25-.25h2.00391c.1377,0,.25.11182.25.25s-.1123.25-.25.25ZM256.37893,147.72385h-2.00391c-.1377,0-.25-.11182-.25-.25s.1123-.25.25-.25h2.00391c.1377,0,.25.11182.25.25s-.1123.25-.25.25ZM251.36916,147.72385h-2.00391c-.1377,0-.25-.11182-.25-.25s.1123-.25.25-.25h2.00391c.1377,0,.25.11182.25.25s-.1123.25-.25.25ZM246.36037,147.72385h-2.00391c-.1377,0-.25-.11182-.25-.25s.1123-.25.25-.25h2.00391c.1377,0,.25.11182.25.25s-.1123.25-.25.25ZM241.35061,147.72385h-2.00391c-.1377,0-.25-.11182-.25-.25s.1123-.25.25-.25h2.00391c.1377,0,.25.11182.25.25s-.1123.25-.25.25ZM236.34084,147.72385h-2.00391c-.1377,0-.25-.11182-.25-.25s.1123-.25.25-.25h2.00391c.1377,0,.25.11182.25.25s-.1123.25-.25.25ZM231.33108,147.72385h-2.00391c-.1377,0-.25-.11182-.25-.25s.1123-.25.25-.25h2.00391c.1377,0,.25.11182.25.25s-.1123.25-.25.25ZM226.32229,147.72385h-2.00391c-.1377,0-.25-.11182-.25-.25s.1123-.25.25-.25h2.00391c.1377,0,.25.11182.25.25s-.1123.25-.25.25ZM221.31252,147.72385h-2.00391c-.1377,0-.25-.11182-.25-.25s.1123-.25.25-.25h2.00391c.1377,0,.25.11182.25.25s-.1123.25-.25.25ZM216.30276,147.72385h-2.00391c-.1377,0-.25-.11182-.25-.25s.1123-.25.25-.25h2.00391c.1377,0,.25.11182.25.25s-.1123.25-.25.25ZM211.29397,147.72385h-2.00391c-.1377,0-.25-.11182-.25-.25s.1123-.25.25-.25h2.00391c.1377,0,.25.11182.25.25s-.1123.25-.25.25ZM206.2842,147.72385h-2.00391c-.1377,0-.25-.11182-.25-.25s.1123-.25.25-.25h2.00391c.1377,0,.25.11182.25.25s-.1123.25-.25.25ZM201.27444,147.72385h-2.00391c-.1377,0-.25-.11182-.25-.25s.1123-.25.25-.25h2.00391c.1377,0,.25.11182.25.25s-.1123.25-.25.25ZM196.26467,147.72385h-2.00391c-.1377,0-.25-.11182-.25-.25s.1123-.25.25-.25h2.00391c.1377,0,.25.11182.25.25s-.1123.25-.25.25ZM191.25588,147.72385h-2.00391c-.1377,0-.25-.11182-.25-.25s.1123-.25.25-.25h2.00391c.1377,0,.25.11182.25.25s-.1123.25-.25.25ZM186.24612,147.72385h-2.00391c-.1377,0-.25-.11182-.25-.25s.1123-.25.25-.25h2.00391c.1377,0,.25.11182.25.25s-.1123.25-.25.25ZM181.23635,147.72385h-2.00391c-.1377,0-.25-.11182-.25-.25s.1123-.25.25-.25h2.00391c.1377,0,.25.11182.25.25s-.1123.25-.25.25ZM176.22658,147.72385h-2.00293c-.1377,0-.25-.11182-.25-.25s.1123-.25.25-.25h2.00293c.1377,0,.25.11182.25.25s-.1123.25-.25.25ZM171.2178,147.72385h-2.00391c-.1377,0-.25-.11182-.25-.25s.1123-.25.25-.25h2.00391c.1377,0,.25.11182.25.25s-.1123.25-.25.25ZM166.20803,147.72385h-2.00391c-.1377,0-.25-.11182-.25-.25s.1123-.25.25-.25h2.00391c.1377,0,.25.11182.25.25s-.1123.25-.25.25ZM161.19826,147.72385h-2.00391c-.1377,0-.25-.11182-.25-.25s.1123-.25.25-.25h2.00391c.1377,0,.25.11182.25.25s-.1123.25-.25.25ZM156.18948,147.72385h-2.00391c-.1377,0-.25-.11182-.25-.25s.1123-.25.25-.25h2.00391c.1377,0,.25.11182.25.25s-.1123.25-.25.25ZM151.17971,147.72385h-2.00391c-.1377,0-.25-.11182-.25-.25s.1123-.25.25-.25h2.00391c.1377,0,.25.11182.25.25s-.1123.25-.25.25ZM146.16994,147.72385h-2.00391c-.1377,0-.25-.11182-.25-.25s.1123-.25.25-.25h2.00391c.1377,0,.25.11182.25.25s-.1123.25-.25.25ZM141.16115,147.72385h-2.00391c-.1377,0-.25-.11182-.25-.25s.1123-.25.25-.25h2.00391c.1377,0,.25.11182.25.25s-.1123.25-.25.25ZM136.15139,147.72385h-2.00391c-.1377,0-.25-.11182-.25-.25s.1123-.25.25-.25h2.00391c.1377,0,.25.11182.25.25s-.1123.25-.25.25ZM131.14162,147.72385h-2.00391c-.1377,0-.25-.11182-.25-.25s.1123-.25.25-.25h2.00391c.1377,0,.25.11182.25.25s-.1123.25-.25.25ZM126.13186,147.72385h-2.00293c-.1377,0-.25-.11182-.25-.25s.1123-.25.25-.25h2.00293c.1377,0,.25.11182.25.25s-.1123.25-.25.25ZM121.12307,147.72385h-2.00391c-.1377,0-.25-.11182-.25-.25s.1123-.25.25-.25h2.00391c.1377,0,.25.11182.25.25s-.1123.25-.25.25ZM116.1133,147.72385h-2.00391c-.1377,0-.25-.11182-.25-.25s.1123-.25.25-.25h2.00391c.1377,0,.25.11182.25.25s-.1123.25-.25.25ZM111.10354,147.72385h-2.00391c-.1377,0-.25-.11182-.25-.25s.1123-.25.25-.25h2.00391c.1377,0,.25.11182.25.25s-.1123.25-.25.25ZM106.09475,147.72385h-2.00391c-.1377,0-.25-.11182-.25-.25s.1123-.25.25-.25h2.00391c.1377,0,.25.11182.25.25s-.1123.25-.25.25ZM101.08498,147.72385h-2.00391c-.1377,0-.25-.11182-.25-.25s.1123-.25.25-.25h2.00391c.1377,0,.25.11182.25.25s-.1123.25-.25.25ZM96.07522,147.72385h-2.00391c-.1377,0-.25-.11182-.25-.25s.1123-.25.25-.25h2.00391c.1377,0,.25.11182.25.25s-.1123.25-.25.25ZM91.06545,147.72385h-2.00293c-.1377,0-.25-.11182-.25-.25s.1123-.25.25-.25h2.00293c.1377,0,.25.11182.25.25s-.1123.25-.25.25ZM86.05666,147.72385h-2.00391c-.1377,0-.25-.11182-.25-.25s.1123-.25.25-.25h2.00391c.1377,0,.25.11182.25.25s-.1123.25-.25.25ZM81.0469,147.72385h-2.00391c-.1377,0-.25-.11182-.25-.25s.1123-.25.25-.25h2.00391c.1377,0,.25.11182.25.25s-.1123.25-.25.25ZM76.03713,147.72385h-2.00391c-.1377,0-.25-.11182-.25-.25s.1123-.25.25-.25h2.00391c.1377,0,.25.11182.25.25s-.1123.25-.25.25ZM71.02834,147.72385h-2.00391c-.1377,0-.25-.11182-.25-.25s.1123-.25.25-.25h2.00391c.1377,0,.25.11182.25.25s-.1123.25-.25.25ZM66.01858,147.72385h-2.00391c-.1377,0-.25-.11182-.25-.25s.1123-.25.25-.25h2.00391c.1377,0,.25.11182.25.25s-.1123.25-.25.25Z"/><path class="uuid-bbc32ded-c847-4d71-9b7f-2f2e435127db" d="M300.45998,147.72385h-1c-.1377,0-.25-.11182-.25-.25s.1123-.25.25-.25h1c.1377,0,.25.11182.25.25s-.1123.25-.25.25Z"/><rect class="uuid-be8d3c5f-0c83-4775-96ff-3732738fa9f8" y=".16516" width="60" height="175"/></svg>